<svg xmlns="http://www.w3.org/2000/svg" xmlns:xlink="http://www.w3.org/1999/xlink" width="160" zoomAndPan="magnify" viewBox="0 0 120 37.5" height="50" preserveAspectRatio="xMidYMid meet" version="1.0"><defs><g/></defs><g fill="#373643" fill-opacity="1"><g transform="translate(0.789474, 32.111902)"><g><path d="M 1.59375 -5.375 L 1.59375 -1.546875 C 1.59375 -1.117188 1.671875 -0.820312 1.828125 -0.65625 C 1.984375 -0.5 2.257812 -0.421875 2.65625 -0.421875 L 3.296875 -0.421875 L 3.296875 0 L 2.578125 0 C 2.078125 0 1.707031 -0.117188 1.46875 -0.359375 C 1.226562 -0.597656 1.109375 -0.992188 1.109375 -1.546875 L 1.109375 -5.375 L 0.234375 -5.375 L 0.234375 -5.78125 L 1.109375 -5.78125 L 1.109375 -7.25 L 1.59375 -7.25 L 1.59375 -5.78125 L 3.296875 -5.78125 L 3.296875 -5.375 Z M 1.59375 -5.375 "/></g></g></g><g fill="#373643" fill-opacity="1"><g transform="translate(4.080377, 32.111902)"><g><path d="M 0.578125 -2.90625 C 0.578125 -3.5 0.695312 -4.019531 0.9375 -4.46875 C 1.175781 -4.914062 1.503906 -5.257812 1.921875 -5.5 C 2.347656 -5.738281 2.832031 -5.859375 3.375 -5.859375 C 3.976562 -5.859375 4.492188 -5.707031 4.921875 -5.40625 C 5.347656 -5.113281 5.644531 -4.734375 5.8125 -4.265625 L 5.8125 -5.78125 L 6.296875 -5.78125 L 6.296875 0 L 5.8125 0 L 5.8125 -1.53125 C 5.644531 -1.0625 5.34375 -0.675781 4.90625 -0.375 C 4.476562 -0.0703125 3.96875 0.078125 3.375 0.078125 C 2.832031 0.078125 2.347656 -0.0390625 1.921875 -0.28125 C 1.503906 -0.53125 1.175781 -0.878906 0.9375 -1.328125 C 0.695312 -1.773438 0.578125 -2.300781 0.578125 -2.90625 Z M 5.8125 -2.90625 C 5.8125 -3.40625 5.707031 -3.847656 5.5 -4.234375 C 5.289062 -4.617188 5.003906 -4.914062 4.640625 -5.125 C 4.285156 -5.34375 3.882812 -5.453125 3.4375 -5.453125 C 2.96875 -5.453125 2.550781 -5.347656 2.1875 -5.140625 C 1.832031 -4.941406 1.554688 -4.648438 1.359375 -4.265625 C 1.160156 -3.878906 1.0625 -3.425781 1.0625 -2.90625 C 1.0625 -2.375 1.160156 -1.914062 1.359375 -1.53125 C 1.554688 -1.144531 1.832031 -0.847656 2.1875 -0.640625 C 2.550781 -0.441406 2.96875 -0.34375 3.4375 -0.34375 C 3.882812 -0.34375 4.289062 -0.445312 4.65625 -0.65625 C 5.019531 -0.863281 5.300781 -1.160156 5.5 -1.546875 C 5.707031 -1.929688 5.8125 -2.382812 5.8125 -2.90625 Z M 5.8125 -2.90625 "/></g></g></g><g fill="#373643" fill-opacity="1"><g transform="translate(10.843515, 32.111902)"><g><path d="M 2.796875 0.078125 C 2.148438 0.078125 1.625 -0.0625 1.21875 -0.34375 C 0.8125 -0.625 0.582031 -1.03125 0.53125 -1.5625 L 1.015625 -1.5625 C 1.054688 -1.175781 1.226562 -0.875 1.53125 -0.65625 C 1.84375 -0.4375 2.265625 -0.328125 2.796875 -0.328125 C 3.242188 -0.328125 3.59375 -0.4375 3.84375 -0.65625 C 4.101562 -0.882812 4.234375 -1.160156 4.234375 -1.484375 C 4.234375 -1.710938 4.164062 -1.898438 4.03125 -2.046875 C 3.894531 -2.191406 3.722656 -2.300781 3.515625 -2.375 C 3.304688 -2.457031 3.023438 -2.546875 2.671875 -2.640625 C 2.242188 -2.753906 1.898438 -2.863281 1.640625 -2.96875 C 1.378906 -3.082031 1.15625 -3.25 0.96875 -3.46875 C 0.78125 -3.6875 0.6875 -3.984375 0.6875 -4.359375 C 0.6875 -4.628906 0.769531 -4.878906 0.9375 -5.109375 C 1.101562 -5.335938 1.332031 -5.519531 1.625 -5.65625 C 1.914062 -5.789062 2.242188 -5.859375 2.609375 -5.859375 C 3.210938 -5.859375 3.703125 -5.707031 4.078125 -5.40625 C 4.453125 -5.101562 4.648438 -4.6875 4.671875 -4.15625 L 4.203125 -4.15625 C 4.179688 -4.539062 4.03125 -4.851562 3.75 -5.09375 C 3.46875 -5.332031 3.082031 -5.453125 2.59375 -5.453125 C 2.1875 -5.453125 1.847656 -5.34375 1.578125 -5.125 C 1.304688 -4.914062 1.171875 -4.660156 1.171875 -4.359375 C 1.171875 -4.085938 1.242188 -3.867188 1.390625 -3.703125 C 1.546875 -3.535156 1.734375 -3.40625 1.953125 -3.3125 C 2.179688 -3.226562 2.484375 -3.132812 2.859375 -3.03125 C 3.265625 -2.925781 3.585938 -2.820312 3.828125 -2.71875 C 4.078125 -2.613281 4.285156 -2.460938 4.453125 -2.265625 C 4.617188 -2.078125 4.703125 -1.816406 4.703125 -1.484375 C 4.703125 -1.191406 4.617188 -0.921875 4.453125 -0.671875 C 4.296875 -0.429688 4.070312 -0.242188 3.78125 -0.109375 C 3.488281 0.015625 3.160156 0.078125 2.796875 0.078125 Z M 2.796875 0.078125 "/></g></g></g><g fill="#373643" fill-opacity="1"><g transform="translate(15.732065, 32.111902)"><g><path d="M 3.875 0 L 1.359375 -2.65625 L 1.359375 0 L 0.875 0 L 0.875 -7.890625 L 1.359375 -7.890625 L 1.359375 -3.171875 L 3.84375 -5.78125 L 4.5 -5.78125 L 1.703125 -2.90625 L 4.546875 0 Z M 3.875 0 "/></g></g></g><g fill="#373643" fill-opacity="1"><g transform="translate(19.981562, 32.111902)"><g/></g></g><g fill="#373643" fill-opacity="1"><g transform="translate(22.580151, 32.111902)"><g><path d="M 7.71875 -5.90625 C 8.375 -5.90625 8.910156 -5.691406 9.328125 -5.265625 C 9.753906 -4.847656 9.96875 -4.222656 9.96875 -3.390625 L 9.96875 0 L 9.5 0 L 9.5 -3.359375 C 9.5 -4.046875 9.332031 -4.570312 9 -4.9375 C 8.664062 -5.300781 8.210938 -5.484375 7.640625 -5.484375 C 7.046875 -5.484375 6.566406 -5.273438 6.203125 -4.859375 C 5.835938 -4.453125 5.65625 -3.859375 5.65625 -3.078125 L 5.65625 0 L 5.1875 0 L 5.1875 -3.359375 C 5.1875 -4.046875 5.019531 -4.570312 4.6875 -4.9375 C 4.363281 -5.300781 3.910156 -5.484375 3.328125 -5.484375 C 2.734375 -5.484375 2.253906 -5.273438 1.890625 -4.859375 C 1.535156 -4.453125 1.359375 -3.859375 1.359375 -3.078125 L 1.359375 0 L 0.875 0 L 0.875 -5.78125 L 1.359375 -5.78125 L 1.359375 -4.53125 C 1.515625 -4.988281 1.773438 -5.332031 2.140625 -5.5625 C 2.515625 -5.789062 2.9375 -5.90625 3.40625 -5.90625 C 3.9375 -5.90625 4.390625 -5.765625 4.765625 -5.484375 C 5.148438 -5.210938 5.410156 -4.8125 5.546875 -4.28125 C 5.679688 -4.8125 5.941406 -5.210938 6.328125 -5.484375 C 6.722656 -5.765625 7.1875 -5.90625 7.71875 -5.90625 Z M 7.71875 -5.90625 "/></g></g></g><g fill="#373643" fill-opacity="1"><g transform="translate(32.964633, 32.111902)"><g><path d="M 0.578125 -2.90625 C 0.578125 -3.5 0.695312 -4.019531 0.9375 -4.46875 C 1.175781 -4.914062 1.503906 -5.257812 1.921875 -5.5 C 2.347656 -5.738281 2.832031 -5.859375 3.375 -5.859375 C 3.976562 -5.859375 4.492188 -5.707031 4.921875 -5.40625 C 5.347656 -5.113281 5.644531 -4.734375 5.8125 -4.265625 L 5.8125 -5.78125 L 6.296875 -5.78125 L 6.296875 0 L 5.8125 0 L 5.8125 -1.53125 C 5.644531 -1.0625 5.34375 -0.675781 4.90625 -0.375 C 4.476562 -0.0703125 3.96875 0.078125 3.375 0.078125 C 2.832031 0.078125 2.347656 -0.0390625 1.921875 -0.28125 C 1.503906 -0.53125 1.175781 -0.878906 0.9375 -1.328125 C 0.695312 -1.773438 0.578125 -2.300781 0.578125 -2.90625 Z M 5.8125 -2.90625 C 5.8125 -3.40625 5.707031 -3.847656 5.5 -4.234375 C 5.289062 -4.617188 5.003906 -4.914062 4.640625 -5.125 C 4.285156 -5.34375 3.882812 -5.453125 3.4375 -5.453125 C 2.96875 -5.453125 2.550781 -5.347656 2.1875 -5.140625 C 1.832031 -4.941406 1.554688 -4.648438 1.359375 -4.265625 C 1.160156 -3.878906 1.0625 -3.425781 1.0625 -2.90625 C 1.0625 -2.375 1.160156 -1.914062 1.359375 -1.53125 C 1.554688 -1.144531 1.832031 -0.847656 2.1875 -0.640625 C 2.550781 -0.441406 2.96875 -0.34375 3.4375 -0.34375 C 3.882812 -0.34375 4.289062 -0.445312 4.65625 -0.65625 C 5.019531 -0.863281 5.300781 -1.160156 5.5 -1.546875 C 5.707031 -1.929688 5.8125 -2.382812 5.8125 -2.90625 Z M 5.8125 -2.90625 "/></g></g></g><g fill="#373643" fill-opacity="1"><g transform="translate(39.727772, 32.111902)"><g><path d="M 3.484375 -5.90625 C 4.171875 -5.90625 4.726562 -5.691406 5.15625 -5.265625 C 5.59375 -4.847656 5.8125 -4.222656 5.8125 -3.390625 L 5.8125 0 L 5.34375 0 L 5.34375 -3.359375 C 5.34375 -4.046875 5.171875 -4.570312 4.828125 -4.9375 C 4.484375 -5.300781 4.007812 -5.484375 3.40625 -5.484375 C 2.78125 -5.484375 2.28125 -5.285156 1.90625 -4.890625 C 1.539062 -4.492188 1.359375 -3.90625 1.359375 -3.125 L 1.359375 0 L 0.875 0 L 0.875 -5.78125 L 1.359375 -5.78125 L 1.359375 -4.5625 C 1.515625 -5 1.78125 -5.332031 2.15625 -5.5625 C 2.539062 -5.789062 2.984375 -5.90625 3.484375 -5.90625 Z M 3.484375 -5.90625 "/></g></g></g><g fill="#373643" fill-opacity="1"><g transform="translate(45.958354, 32.111902)"><g><path d="M 0.578125 -2.90625 C 0.578125 -3.5 0.695312 -4.019531 0.9375 -4.46875 C 1.175781 -4.914062 1.503906 -5.257812 1.921875 -5.5 C 2.347656 -5.738281 2.832031 -5.859375 3.375 -5.859375 C 3.976562 -5.859375 4.492188 -5.707031 4.921875 -5.40625 C 5.347656 -5.113281 5.644531 -4.734375 5.8125 -4.265625 L 5.8125 -5.78125 L 6.296875 -5.78125 L 6.296875 0 L 5.8125 0 L 5.8125 -1.53125 C 5.644531 -1.0625 5.34375 -0.675781 4.90625 -0.375 C 4.476562 -0.0703125 3.96875 0.078125 3.375 0.078125 C 2.832031 0.078125 2.347656 -0.0390625 1.921875 -0.28125 C 1.503906 -0.53125 1.175781 -0.878906 0.9375 -1.328125 C 0.695312 -1.773438 0.578125 -2.300781 0.578125 -2.90625 Z M 5.8125 -2.90625 C 5.8125 -3.40625 5.707031 -3.847656 5.5 -4.234375 C 5.289062 -4.617188 5.003906 -4.914062 4.640625 -5.125 C 4.285156 -5.34375 3.882812 -5.453125 3.4375 -5.453125 C 2.96875 -5.453125 2.550781 -5.347656 2.1875 -5.140625 C 1.832031 -4.941406 1.554688 -4.648438 1.359375 -4.265625 C 1.160156 -3.878906 1.0625 -3.425781 1.0625 -2.90625 C 1.0625 -2.375 1.160156 -1.914062 1.359375 -1.53125 C 1.554688 -1.144531 1.832031 -0.847656 2.1875 -0.640625 C 2.550781 -0.441406 2.96875 -0.34375 3.4375 -0.34375 C 3.882812 -0.34375 4.289062 -0.445312 4.65625 -0.65625 C 5.019531 -0.863281 5.300781 -1.160156 5.5 -1.546875 C 5.707031 -1.929688 5.8125 -2.382812 5.8125 -2.90625 Z M 5.8125 -2.90625 "/></g></g></g><g fill="#373643" fill-opacity="1"><g transform="translate(52.721493, 32.111902)"><g><path d="M 3.375 -5.859375 C 3.976562 -5.859375 4.492188 -5.707031 4.921875 -5.40625 C 5.347656 -5.113281 5.644531 -4.738281 5.8125 -4.28125 L 5.8125 -5.78125 L 6.296875 -5.78125 L 6.296875 0.1875 C 6.296875 0.71875 6.175781 1.179688 5.9375 1.578125 C 5.707031 1.984375 5.394531 2.289062 5 2.5 C 4.601562 2.71875 4.160156 2.828125 3.671875 2.828125 C 2.941406 2.828125 2.335938 2.65625 1.859375 2.3125 C 1.390625 1.96875 1.078125 1.5 0.921875 0.90625 L 1.40625 0.90625 C 1.550781 1.363281 1.816406 1.726562 2.203125 2 C 2.597656 2.28125 3.085938 2.421875 3.671875 2.421875 C 4.066406 2.421875 4.425781 2.328125 4.75 2.140625 C 5.082031 1.960938 5.34375 1.703125 5.53125 1.359375 C 5.71875 1.023438 5.8125 0.632812 5.8125 0.1875 L 5.8125 -1.515625 C 5.644531 -1.054688 5.34375 -0.675781 4.90625 -0.375 C 4.476562 -0.0703125 3.96875 0.078125 3.375 0.078125 C 2.832031 0.078125 2.347656 -0.0390625 1.921875 -0.28125 C 1.503906 -0.53125 1.175781 -0.878906 0.9375 -1.328125 C 0.695312 -1.773438 0.578125 -2.300781 0.578125 -2.90625 C 0.578125 -3.5 0.695312 -4.019531 0.9375 -4.46875 C 1.175781 -4.914062 1.503906 -5.257812 1.921875 -5.5 C 2.347656 -5.738281 2.832031 -5.859375 3.375 -5.859375 Z M 5.8125 -2.90625 C 5.8125 -3.40625 5.707031 -3.847656 5.5 -4.234375 C 5.289062 -4.617188 5.003906 -4.914062 4.640625 -5.125 C 4.285156 -5.34375 3.882812 -5.453125 3.4375 -5.453125 C 2.96875 -5.453125 2.550781 -5.347656 2.1875 -5.140625 C 1.832031 -4.941406 1.554688 -4.648438 1.359375 -4.265625 C 1.160156 -3.878906 1.0625 -3.425781 1.0625 -2.90625 C 1.0625 -2.375 1.160156 -1.914062 1.359375 -1.53125 C 1.554688 -1.144531 1.832031 -0.847656 2.1875 -0.640625 C 2.550781 -0.441406 2.96875 -0.34375 3.4375 -0.34375 C 3.882812 -0.34375 4.289062 -0.445312 4.65625 -0.65625 C 5.019531 -0.863281 5.300781 -1.160156 5.5 -1.546875 C 5.707031 -1.929688 5.8125 -2.382812 5.8125 -2.90625 Z M 5.8125 -2.90625 "/></g></g></g><g fill="#373643" fill-opacity="1"><g transform="translate(59.484629, 32.111902)"><g><path d="M 6.078125 -3.28125 C 6.078125 -3.03125 6.070312 -2.835938 6.0625 -2.703125 L 1.0625 -2.703125 C 1.082031 -2.179688 1.195312 -1.742188 1.40625 -1.390625 C 1.613281 -1.035156 1.890625 -0.769531 2.234375 -0.59375 C 2.585938 -0.414062 2.972656 -0.328125 3.390625 -0.328125 C 3.953125 -0.328125 4.425781 -0.46875 4.8125 -0.75 C 5.195312 -1.03125 5.441406 -1.410156 5.546875 -1.890625 L 6.046875 -1.890625 C 5.929688 -1.304688 5.640625 -0.832031 5.171875 -0.46875 C 4.703125 -0.101562 4.109375 0.078125 3.390625 0.078125 C 2.847656 0.078125 2.363281 -0.0390625 1.9375 -0.28125 C 1.507812 -0.519531 1.175781 -0.863281 0.9375 -1.3125 C 0.695312 -1.769531 0.578125 -2.300781 0.578125 -2.90625 C 0.578125 -3.5 0.695312 -4.019531 0.9375 -4.46875 C 1.175781 -4.914062 1.503906 -5.257812 1.921875 -5.5 C 2.347656 -5.738281 2.835938 -5.859375 3.390625 -5.859375 C 3.941406 -5.859375 4.421875 -5.738281 4.828125 -5.5 C 5.242188 -5.257812 5.554688 -4.941406 5.765625 -4.546875 C 5.972656 -4.160156 6.078125 -3.738281 6.078125 -3.28125 Z M 5.609375 -3.09375 C 5.628906 -3.613281 5.535156 -4.050781 5.328125 -4.40625 C 5.128906 -4.757812 4.851562 -5.019531 4.5 -5.1875 C 4.15625 -5.363281 3.78125 -5.453125 3.375 -5.453125 C 2.96875 -5.453125 2.59375 -5.363281 2.25 -5.1875 C 1.90625 -5.019531 1.625 -4.757812 1.40625 -4.40625 C 1.195312 -4.050781 1.082031 -3.613281 1.0625 -3.09375 Z M 5.609375 -3.09375 "/></g></g></g><g fill="#373643" fill-opacity="1"><g transform="translate(65.736508, 32.111902)"><g><path d="M 7.71875 -5.90625 C 8.375 -5.90625 8.910156 -5.691406 9.328125 -5.265625 C 9.753906 -4.847656 9.96875 -4.222656 9.96875 -3.390625 L 9.96875 0 L 9.5 0 L 9.5 -3.359375 C 9.5 -4.046875 9.332031 -4.570312 9 -4.9375 C 8.664062 -5.300781 8.210938 -5.484375 7.640625 -5.484375 C 7.046875 -5.484375 6.566406 -5.273438 6.203125 -4.859375 C 5.835938 -4.453125 5.65625 -3.859375 5.65625 -3.078125 L 5.65625 0 L 5.1875 0 L 5.1875 -3.359375 C 5.1875 -4.046875 5.019531 -4.570312 4.6875 -4.9375 C 4.363281 -5.300781 3.910156 -5.484375 3.328125 -5.484375 C 2.734375 -5.484375 2.253906 -5.273438 1.890625 -4.859375 C 1.535156 -4.453125 1.359375 -3.859375 1.359375 -3.078125 L 1.359375 0 L 0.875 0 L 0.875 -5.78125 L 1.359375 -5.78125 L 1.359375 -4.53125 C 1.515625 -4.988281 1.773438 -5.332031 2.140625 -5.5625 C 2.515625 -5.789062 2.9375 -5.90625 3.40625 -5.90625 C 3.9375 -5.90625 4.390625 -5.765625 4.765625 -5.484375 C 5.148438 -5.210938 5.410156 -4.8125 5.546875 -4.28125 C 5.679688 -4.8125 5.941406 -5.210938 6.328125 -5.484375 C 6.722656 -5.765625 7.1875 -5.90625 7.71875 -5.90625 Z M 7.71875 -5.90625 "/></g></g></g><g fill="#373643" fill-opacity="1"><g transform="translate(76.120988, 32.111902)"><g><path d="M 6.078125 -3.28125 C 6.078125 -3.03125 6.070312 -2.835938 6.0625 -2.703125 L 1.0625 -2.703125 C 1.082031 -2.179688 1.195312 -1.742188 1.40625 -1.390625 C 1.613281 -1.035156 1.890625 -0.769531 2.234375 -0.59375 C 2.585938 -0.414062 2.972656 -0.328125 3.390625 -0.328125 C 3.953125 -0.328125 4.425781 -0.46875 4.8125 -0.75 C 5.195312 -1.03125 5.441406 -1.410156 5.546875 -1.890625 L 6.046875 -1.890625 C 5.929688 -1.304688 5.640625 -0.832031 5.171875 -0.46875 C 4.703125 -0.101562 4.109375 0.078125 3.390625 0.078125 C 2.847656 0.078125 2.363281 -0.0390625 1.9375 -0.28125 C 1.507812 -0.519531 1.175781 -0.863281 0.9375 -1.3125 C 0.695312 -1.769531 0.578125 -2.300781 0.578125 -2.90625 C 0.578125 -3.5 0.695312 -4.019531 0.9375 -4.46875 C 1.175781 -4.914062 1.503906 -5.257812 1.921875 -5.5 C 2.347656 -5.738281 2.835938 -5.859375 3.390625 -5.859375 C 3.941406 -5.859375 4.421875 -5.738281 4.828125 -5.5 C 5.242188 -5.257812 5.554688 -4.941406 5.765625 -4.546875 C 5.972656 -4.160156 6.078125 -3.738281 6.078125 -3.28125 Z M 5.609375 -3.09375 C 5.628906 -3.613281 5.535156 -4.050781 5.328125 -4.40625 C 5.128906 -4.757812 4.851562 -5.019531 4.5 -5.1875 C 4.15625 -5.363281 3.78125 -5.453125 3.375 -5.453125 C 2.96875 -5.453125 2.59375 -5.363281 2.25 -5.1875 C 1.90625 -5.019531 1.625 -4.757812 1.40625 -4.40625 C 1.195312 -4.050781 1.082031 -3.613281 1.0625 -3.09375 Z M 5.609375 -3.09375 "/></g></g></g><g fill="#373643" fill-opacity="1"><g transform="translate(82.372866, 32.111902)"><g><path d="M 3.484375 -5.90625 C 4.171875 -5.90625 4.726562 -5.691406 5.15625 -5.265625 C 5.59375 -4.847656 5.8125 -4.222656 5.8125 -3.390625 L 5.8125 0 L 5.34375 0 L 5.34375 -3.359375 C 5.34375 -4.046875 5.171875 -4.570312 4.828125 -4.9375 C 4.484375 -5.300781 4.007812 -5.484375 3.40625 -5.484375 C 2.78125 -5.484375 2.28125 -5.285156 1.90625 -4.890625 C 1.539062 -4.492188 1.359375 -3.90625 1.359375 -3.125 L 1.359375 0 L 0.875 0 L 0.875 -5.78125 L 1.359375 -5.78125 L 1.359375 -4.5625 C 1.515625 -5 1.78125 -5.332031 2.15625 -5.5625 C 2.539062 -5.789062 2.984375 -5.90625 3.484375 -5.90625 Z M 3.484375 -5.90625 "/></g></g></g><g fill="#373643" fill-opacity="1"><g transform="translate(88.603446, 32.111902)"><g><path d="M 1.59375 -5.375 L 1.59375 -1.546875 C 1.59375 -1.117188 1.671875 -0.820312 1.828125 -0.65625 C 1.984375 -0.5 2.257812 -0.421875 2.65625 -0.421875 L 3.296875 -0.421875 L 3.296875 0 L 2.578125 0 C 2.078125 0 1.707031 -0.117188 1.46875 -0.359375 C 1.226562 -0.597656 1.109375 -0.992188 1.109375 -1.546875 L 1.109375 -5.375 L 0.234375 -5.375 L 0.234375 -5.78125 L 1.109375 -5.78125 L 1.109375 -7.25 L 1.59375 -7.25 L 1.59375 -5.78125 L 3.296875 -5.78125 L 3.296875 -5.375 Z M 1.59375 -5.375 "/></g></g></g><g fill="#da5bff" fill-opacity="1"><g transform="translate(0.789474, 18.582424)"><g><path d="M 3.84375 -1.28125 C 3.84375 -0.9375 3.695312 -0.632812 3.40625 -0.375 C 3.125 -0.125 2.78125 0 2.375 0 C 1.9375 0 1.582031 -0.125 1.3125 -0.375 C 1.039062 -0.632812 0.90625 -0.9375 0.90625 -1.28125 L 0.90625 -15.375 C 0.90625 -15.71875 1.039062 -16.015625 1.3125 -16.265625 C 1.582031 -16.523438 1.9375 -16.65625 2.375 -16.65625 C 2.78125 -16.65625 3.125 -16.523438 3.40625 -16.265625 C 3.695312 -16.015625 3.84375 -15.71875 3.84375 -15.375 Z M 3.84375 -1.28125 "/></g></g></g><g fill="#da5bff" fill-opacity="1"><g transform="translate(5.013054, 18.582424)"><g><path d="M 12.640625 -13.109375 C 13.085938 -13.109375 13.445312 -12.96875 13.71875 -12.6875 C 14 -12.414062 14.140625 -12.078125 14.140625 -11.671875 L 14.140625 -1.3125 C 14.140625 -0.882812 13.976562 -0.554688 13.65625 -0.328125 C 13.34375 -0.109375 13.015625 0 12.671875 0 C 12.296875 0 11.957031 -0.113281 11.65625 -0.34375 C 11.351562 -0.570312 11.203125 -0.90625 11.203125 -1.34375 L 11.203125 -1.4375 C 10.492188 -0.75 9.757812 -0.296875 9 -0.078125 C 8.25 0.140625 7.550781 0.25 6.90625 0.25 C 5.113281 0.25 3.71875 -0.304688 2.71875 -1.421875 C 1.726562 -2.546875 1.234375 -4.070312 1.234375 -6 L 1.234375 -11.671875 C 1.234375 -12.054688 1.363281 -12.390625 1.625 -12.671875 C 1.882812 -12.960938 2.242188 -13.109375 2.703125 -13.109375 C 3.148438 -13.109375 3.503906 -12.960938 3.765625 -12.671875 C 4.035156 -12.390625 4.171875 -12.054688 4.171875 -11.671875 L 4.171875 -5.953125 C 4.171875 -4.835938 4.421875 -3.953125 4.921875 -3.296875 C 5.429688 -2.640625 6.238281 -2.3125 7.34375 -2.3125 C 7.664062 -2.3125 8.046875 -2.398438 8.484375 -2.578125 C 8.921875 -2.765625 9.34375 -3.035156 9.75 -3.390625 C 10.164062 -3.753906 10.507812 -4.210938 10.78125 -4.765625 C 11.0625 -5.328125 11.203125 -5.988281 11.203125 -6.75 L 11.203125 -11.671875 C 11.203125 -12.078125 11.320312 -12.414062 11.5625 -12.6875 C 11.800781 -12.96875 12.160156 -13.109375 12.640625 -13.109375 Z M 12.640625 -13.109375 "/></g></g></g><g fill="#da5bff" fill-opacity="1"><g transform="translate(20.568533, 18.582424)"><g><path d="M 11.53125 -2.21875 C 11.820312 -1.851562 11.9375 -1.503906 11.875 -1.171875 C 11.820312 -0.835938 11.660156 -0.554688 11.390625 -0.328125 C 11.128906 -0.109375 10.828125 0 10.484375 0 C 10.015625 0 9.617188 -0.1875 9.296875 -0.5625 L 4.9375 -5.40625 L 4.203125 -4.734375 L 4.203125 -1.3125 C 4.203125 -0.882812 4.039062 -0.554688 3.71875 -0.328125 C 3.40625 -0.109375 3.066406 0 2.703125 0 C 2.328125 0 1.992188 -0.109375 1.703125 -0.328125 C 1.410156 -0.554688 1.265625 -0.882812 1.265625 -1.3125 L 1.265625 -15.34375 C 1.265625 -15.789062 1.410156 -16.117188 1.703125 -16.328125 C 1.992188 -16.546875 2.335938 -16.65625 2.734375 -16.65625 C 3.128906 -16.65625 3.472656 -16.546875 3.765625 -16.328125 C 4.054688 -16.117188 4.203125 -15.789062 4.203125 -15.34375 L 4.203125 -8.234375 L 8.96875 -12.6875 C 9.289062 -12.96875 9.648438 -13.109375 10.046875 -13.109375 C 10.453125 -13.109375 10.800781 -12.972656 11.09375 -12.703125 C 11.382812 -12.441406 11.53125 -12.140625 11.53125 -11.796875 C 11.53125 -11.460938 11.351562 -11.128906 11 -10.796875 L 6.953125 -7.203125 Z M 11.53125 -2.21875 "/></g></g></g><g fill="#da5bff" fill-opacity="1"><g transform="translate(32.286613, 18.582424)"><g><path d="M 11.96875 -13.109375 C 12.414062 -13.109375 12.769531 -12.984375 13.03125 -12.734375 C 13.300781 -12.484375 13.4375 -12.160156 13.4375 -11.765625 L 13.4375 -1.34375 C 13.4375 -0.945312 13.300781 -0.625 13.03125 -0.375 C 12.769531 -0.125 12.414062 0 11.96875 0 C 11.539062 0 11.207031 -0.0976562 10.96875 -0.296875 C 10.726562 -0.492188 10.582031 -0.753906 10.53125 -1.078125 C 9.945312 -0.617188 9.296875 -0.28125 8.578125 -0.0625 C 7.859375 0.144531 7.171875 0.25 6.515625 0.25 C 5.273438 0.25 4.203125 -0.03125 3.296875 -0.59375 C 2.398438 -1.15625 1.710938 -1.953125 1.234375 -2.984375 C 0.753906 -4.015625 0.515625 -5.21875 0.515625 -6.59375 C 0.515625 -7.925781 0.78125 -9.097656 1.3125 -10.109375 C 1.84375 -11.128906 2.582031 -11.925781 3.53125 -12.5 C 4.488281 -13.070312 5.59375 -13.359375 6.84375 -13.359375 C 7.394531 -13.359375 8.003906 -13.253906 8.671875 -13.046875 C 9.347656 -12.847656 9.96875 -12.523438 10.53125 -12.078125 C 10.601562 -12.390625 10.757812 -12.640625 11 -12.828125 C 11.238281 -13.015625 11.5625 -13.109375 11.96875 -13.109375 Z M 6.828125 -2.34375 C 7.578125 -2.34375 8.300781 -2.507812 9 -2.84375 C 9.707031 -3.175781 10.207031 -3.671875 10.5 -4.328125 L 10.5 -8.78125 C 10.175781 -9.414062 9.6875 -9.90625 9.03125 -10.25 C 8.382812 -10.59375 7.726562 -10.765625 7.0625 -10.765625 C 5.976562 -10.765625 5.101562 -10.367188 4.4375 -9.578125 C 3.78125 -8.785156 3.453125 -7.78125 3.453125 -6.5625 C 3.453125 -5.289062 3.757812 -4.269531 4.375 -3.5 C 4.988281 -2.726562 5.804688 -2.34375 6.828125 -2.34375 Z M 6.828125 -2.34375 "/></g></g></g><g fill="#0d255e" fill-opacity="1"><g transform="translate(47.174906, 18.582424)"><g><path d="M 6.953125 -13.109375 C 7.410156 -13.109375 7.773438 -13.007812 8.046875 -12.8125 C 8.328125 -12.613281 8.46875 -12.289062 8.46875 -11.84375 C 8.46875 -11.4375 8.328125 -11.109375 8.046875 -10.859375 C 7.773438 -10.617188 7.410156 -10.5 6.953125 -10.5 C 5.867188 -10.5 5.109375 -10.113281 4.671875 -9.34375 C 4.234375 -8.570312 4.015625 -7.523438 4.015625 -6.203125 L 4.015625 -1.3125 C 4.015625 -0.9375 3.875 -0.625 3.59375 -0.375 C 3.320312 -0.125 2.988281 0 2.59375 0 C 2.15625 0 1.796875 -0.125 1.515625 -0.375 C 1.242188 -0.625 1.109375 -0.9375 1.109375 -1.3125 L 1.109375 -11.796875 C 1.109375 -12.203125 1.265625 -12.519531 1.578125 -12.75 C 1.898438 -12.988281 2.238281 -13.109375 2.59375 -13.109375 C 2.957031 -13.109375 3.285156 -12.992188 3.578125 -12.765625 C 3.867188 -12.546875 4.015625 -12.222656 4.015625 -11.796875 L 4.015625 -11.640625 C 4.390625 -12.140625 4.828125 -12.507812 5.328125 -12.75 C 5.828125 -12.988281 6.367188 -13.109375 6.953125 -13.109375 Z M 6.953125 -13.109375 "/></g></g></g><g fill="#0d255e" fill-opacity="1"><g transform="translate(54.875318, 18.582424)"><g><path d="M 7.359375 -2.296875 C 7.859375 -2.296875 8.347656 -2.363281 8.828125 -2.5 C 9.304688 -2.632812 9.753906 -2.863281 10.171875 -3.1875 C 10.566406 -3.550781 10.953125 -3.71875 11.328125 -3.6875 C 11.703125 -3.664062 12.015625 -3.53125 12.265625 -3.28125 C 12.515625 -3.03125 12.640625 -2.71875 12.640625 -2.34375 C 12.640625 -1.976562 12.460938 -1.625 12.109375 -1.28125 C 11.503906 -0.695312 10.789062 -0.289062 9.96875 -0.0625 C 9.144531 0.164062 8.300781 0.269531 7.4375 0.25 C 6.101562 0.25 4.925781 -0.0195312 3.90625 -0.5625 C 2.882812 -1.113281 2.082031 -1.878906 1.5 -2.859375 C 0.925781 -3.835938 0.640625 -4.96875 0.640625 -6.25 C 0.640625 -7.664062 0.914062 -8.90625 1.46875 -9.96875 C 2.019531 -11.03125 2.796875 -11.859375 3.796875 -12.453125 C 4.796875 -13.054688 5.984375 -13.359375 7.359375 -13.359375 C 8.734375 -13.359375 9.898438 -13.078125 10.859375 -12.515625 C 11.828125 -11.960938 12.5625 -11.179688 13.0625 -10.171875 C 13.570312 -9.171875 13.828125 -8.003906 13.828125 -6.671875 C 13.828125 -6.242188 13.738281 -5.878906 13.5625 -5.578125 C 13.394531 -5.273438 12.941406 -5.125 12.203125 -5.125 L 3.625 -5.125 C 3.863281 -4.28125 4.316406 -3.597656 4.984375 -3.078125 C 5.660156 -2.554688 6.453125 -2.296875 7.359375 -2.296875 Z M 7.390625 -10.8125 C 6.390625 -10.8125 5.554688 -10.5 4.890625 -9.875 C 4.222656 -9.25 3.796875 -8.429688 3.609375 -7.421875 L 11.09375 -7.421875 C 11.007812 -8.429688 10.675781 -9.25 10.09375 -9.875 C 9.507812 -10.5 8.609375 -10.8125 7.390625 -10.8125 Z M 7.390625 -10.8125 "/></g></g></g><g fill="#0d255e" fill-opacity="1"><g transform="translate(69.838441, 18.582424)"><g><path d="M 7.875 -13.359375 C 9.144531 -13.359375 10.253906 -13.078125 11.203125 -12.515625 C 12.160156 -11.960938 12.898438 -11.179688 13.421875 -10.171875 C 13.953125 -9.171875 14.21875 -8.007812 14.21875 -6.6875 C 14.21875 -5.320312 13.953125 -4.113281 13.421875 -3.0625 C 12.898438 -2.019531 12.175781 -1.207031 11.25 -0.625 C 10.320312 -0.0390625 9.234375 0.25 7.984375 0.25 C 7.398438 0.25 6.765625 0.148438 6.078125 -0.046875 C 5.390625 -0.253906 4.765625 -0.546875 4.203125 -0.921875 L 4.203125 3.015625 C 4.203125 3.441406 4.050781 3.765625 3.75 3.984375 C 3.445312 4.210938 3.113281 4.328125 2.75 4.328125 C 2.375 4.328125 2.035156 4.210938 1.734375 3.984375 C 1.429688 3.765625 1.28125 3.441406 1.28125 3.015625 L 1.28125 -11.796875 C 1.28125 -12.203125 1.410156 -12.519531 1.671875 -12.75 C 1.941406 -12.988281 2.3125 -13.109375 2.78125 -13.109375 C 3.550781 -13.109375 4.003906 -12.804688 4.140625 -12.203125 C 4.742188 -12.628906 5.367188 -12.925781 6.015625 -13.09375 C 6.671875 -13.269531 7.289062 -13.359375 7.875 -13.359375 Z M 7.90625 -2.34375 C 8.914062 -2.34375 9.726562 -2.738281 10.34375 -3.53125 C 10.96875 -4.332031 11.28125 -5.378906 11.28125 -6.671875 C 11.28125 -7.890625 10.945312 -8.875 10.28125 -9.625 C 9.625 -10.382812 8.753906 -10.765625 7.671875 -10.765625 C 6.984375 -10.765625 6.3125 -10.585938 5.65625 -10.234375 C 5.007812 -9.878906 4.523438 -9.378906 4.203125 -8.734375 L 4.203125 -4.453125 C 4.472656 -3.785156 4.957031 -3.265625 5.65625 -2.890625 C 6.363281 -2.523438 7.113281 -2.34375 7.90625 -2.34375 Z M 7.90625 -2.34375 "/></g></g></g><g fill="#0d255e" fill-opacity="1"><g transform="translate(84.827325, 18.582424)"><g><path d="M 7.359375 -13.359375 C 8.734375 -13.359375 9.9375 -13.070312 10.96875 -12.5 C 12 -11.925781 12.796875 -11.125 13.359375 -10.09375 C 13.929688 -9.0625 14.21875 -7.859375 14.21875 -6.484375 C 14.195312 -5.148438 13.898438 -3.972656 13.328125 -2.953125 C 12.753906 -1.941406 11.957031 -1.15625 10.9375 -0.59375 C 9.914062 -0.03125 8.722656 0.25 7.359375 0.25 C 6.023438 0.25 4.84375 -0.03125 3.8125 -0.59375 C 2.78125 -1.15625 1.976562 -1.941406 1.40625 -2.953125 C 0.832031 -3.972656 0.535156 -5.148438 0.515625 -6.484375 C 0.515625 -7.859375 0.800781 -9.0625 1.375 -10.09375 C 1.945312 -11.125 2.75 -11.925781 3.78125 -12.5 C 4.8125 -13.070312 6.003906 -13.359375 7.359375 -13.359375 Z M 7.359375 -2.3125 C 8.523438 -2.3125 9.457031 -2.695312 10.15625 -3.46875 C 10.851562 -4.25 11.203125 -5.253906 11.203125 -6.484375 C 11.203125 -7.753906 10.851562 -8.789062 10.15625 -9.59375 C 9.457031 -10.394531 8.523438 -10.796875 7.359375 -10.796875 C 6.210938 -10.796875 5.285156 -10.394531 4.578125 -9.59375 C 3.878906 -8.789062 3.53125 -7.753906 3.53125 -6.484375 C 3.53125 -5.253906 3.878906 -4.25 4.578125 -3.46875 C 5.285156 -2.695312 6.210938 -2.3125 7.359375 -2.3125 Z M 7.359375 -2.3125 "/></g></g></g><g fill="#0d255e" fill-opacity="1"><g transform="translate(99.120844, 18.582424)"><g><path d="M 6.953125 -13.109375 C 7.410156 -13.109375 7.773438 -13.007812 8.046875 -12.8125 C 8.328125 -12.613281 8.46875 -12.289062 8.46875 -11.84375 C 8.46875 -11.4375 8.328125 -11.109375 8.046875 -10.859375 C 7.773438 -10.617188 7.410156 -10.5 6.953125 -10.5 C 5.867188 -10.5 5.109375 -10.113281 4.671875 -9.34375 C 4.234375 -8.570312 4.015625 -7.523438 4.015625 -6.203125 L 4.015625 -1.3125 C 4.015625 -0.9375 3.875 -0.625 3.59375 -0.375 C 3.320312 -0.125 2.988281 0 2.59375 0 C 2.15625 0 1.796875 -0.125 1.515625 -0.375 C 1.242188 -0.625 1.109375 -0.9375 1.109375 -1.3125 L 1.109375 -11.796875 C 1.109375 -12.203125 1.265625 -12.519531 1.578125 -12.75 C 1.898438 -12.988281 2.238281 -13.109375 2.59375 -13.109375 C 2.957031 -13.109375 3.285156 -12.992188 3.578125 -12.765625 C 3.867188 -12.546875 4.015625 -12.222656 4.015625 -11.796875 L 4.015625 -11.640625 C 4.390625 -12.140625 4.828125 -12.507812 5.328125 -12.75 C 5.828125 -12.988281 6.367188 -13.109375 6.953125 -13.109375 Z M 6.953125 -13.109375 "/></g></g></g><g fill="#0d255e" fill-opacity="1"><g transform="translate(106.821257, 18.582424)"><g><path d="M 7.078125 -2.453125 C 7.472656 -2.671875 7.828125 -2.742188 8.140625 -2.671875 C 8.460938 -2.609375 8.722656 -2.457031 8.921875 -2.21875 C 9.117188 -1.988281 9.21875 -1.722656 9.21875 -1.421875 C 9.21875 -1.191406 9.148438 -0.960938 9.015625 -0.734375 C 8.878906 -0.515625 8.664062 -0.332031 8.375 -0.1875 C 7.988281 0.0195312 7.640625 0.144531 7.328125 0.1875 C 7.023438 0.226562 6.664062 0.25 6.25 0.25 C 5.132812 0.25 4.273438 0.0195312 3.671875 -0.4375 C 3.078125 -0.90625 2.664062 -1.503906 2.4375 -2.234375 C 2.21875 -2.972656 2.109375 -3.753906 2.109375 -4.578125 L 2.109375 -10.65625 L 1.140625 -10.65625 C 0.648438 -10.65625 0.289062 -10.785156 0.0625 -11.046875 C -0.164062 -11.304688 -0.28125 -11.582031 -0.28125 -11.875 C -0.28125 -12.175781 -0.160156 -12.457031 0.078125 -12.71875 C 0.316406 -12.976562 0.671875 -13.109375 1.140625 -13.109375 L 2.109375 -13.109375 L 2.109375 -15.328125 C 2.109375 -15.765625 2.253906 -16.09375 2.546875 -16.3125 C 2.835938 -16.539062 3.171875 -16.65625 3.546875 -16.65625 C 3.910156 -16.65625 4.242188 -16.539062 4.546875 -16.3125 C 4.859375 -16.09375 5.015625 -15.765625 5.015625 -15.328125 L 5.015625 -13.109375 L 7.03125 -13.109375 C 7.476562 -13.109375 7.820312 -12.976562 8.0625 -12.71875 C 8.300781 -12.457031 8.421875 -12.175781 8.421875 -11.875 C 8.421875 -11.5625 8.300781 -11.28125 8.0625 -11.03125 C 7.820312 -10.78125 7.476562 -10.65625 7.03125 -10.65625 L 5.015625 -10.65625 L 5.015625 -4.578125 C 5.015625 -4.203125 5.039062 -3.835938 5.09375 -3.484375 C 5.144531 -3.140625 5.257812 -2.847656 5.4375 -2.609375 C 5.625 -2.378906 5.894531 -2.265625 6.25 -2.265625 C 6.394531 -2.265625 6.546875 -2.285156 6.703125 -2.328125 C 6.867188 -2.367188 6.992188 -2.410156 7.078125 -2.453125 Z M 7.078125 -2.453125 "/></g></g></g></svg>